<?xml version="1.0" standalone="no"?>
<!DOCTYPE svg PUBLIC "-//W3C//DTD SVG 20010904//EN"
 "http://www.w3.org/TR/2001/REC-SVG-20010904/DTD/svg10.dtd">
<svg version="1.0" xmlns="http://www.w3.org/2000/svg"
 width="512.000000pt" height="512.000000pt" viewBox="0 0 512.000000 512.000000"
 preserveAspectRatio="xMidYMid meet">
<metadata>
Created by potrace 1.11, written by Peter Selinger 2001-2013
</metadata>
<g transform="translate(0.000000,512.000000) scale(0.100000,-0.100000)"
fill="#000000" stroke="none">
<path d="M580 2560 l0 -2470 1980 0 1980 0 0 2470 0 2470 -1980 0 -1980 0 0
-2470z m2150 1970 c588 -46 979 -311 1080 -733 28 -115 27 -286 -1 -387 -27
-100 -85 -208 -164 -308 -113 -143 -264 -249 -460 -326 -55 -21 -109 -42 -120
-47 -11 -5 -33 -13 -49 -19 -17 -6 -25 -14 -20 -19 5 -5 92 -43 194 -84 359
-145 511 -223 636 -327 77 -63 203 -212 202 -239 0 -9 11 -56 26 -105 39 -131
49 -216 43 -351 -10 -230 -84 -399 -246 -568 -217 -227 -500 -333 -961 -362
-58 -4 -134 -13 -170 -22 -140 -31 -161 -32 -343 -23 -313 17 -495 46 -688
110 -181 60 -314 135 -441 249 -116 104 -207 257 -249 416 -27 104 -30 307 -6
407 97 397 413 676 882 778 55 11 101 22 102 24 2 1 -55 42 -126 89 -313 211
-499 461 -547 737 -37 214 16 459 137 637 47 69 164 188 234 238 250 179 644
267 1055 235z"/>
<path d="M2365 4473 c-122 -11 -336 -73 -449 -130 -209 -105 -395 -291 -469
-468 -58 -139 -74 -345 -38 -488 83 -323 349 -590 809 -813 122 -60 212 -98
657 -281 325 -134 425 -189 544 -299 130 -120 199 -270 208 -449 12 -216 -57
-402 -206 -558 -135 -142 -322 -235 -547 -271 -90 -14 -100 -18 -89 -36 8 -13
97 -7 235 16 134 22 227 51 335 104 240 117 387 290 457 535 18 66 22 105 23
225 0 134 -2 152 -29 234 -74 224 -257 397 -576 542 -74 34 -254 110 -400 169
-470 191 -630 266 -777 364 -330 221 -515 540 -474 821 33 224 146 417 322
550 135 101 288 163 477 190 69 10 82 15 82 31 0 20 -4 20 -95 12z"/>
<path d="M2730 4446 c0 -7 37 -23 83 -36 225 -65 370 -184 477 -391 222 -431
109 -936 -263 -1177 -38 -24 -94 -55 -125 -67 -41 -17 -52 -25 -40 -30 10 -4
61 12 126 40 271 114 458 279 537 474 82 201 69 495 -31 694 -101 201 -302
369 -535 447 -103 35 -229 60 -229 46z"/>
<path d="M2440 4379 c-78 -13 -211 -61 -277 -100 -32 -19 -94 -70 -139 -114
-130 -129 -187 -271 -186 -470 0 -190 64 -326 232 -496 129 -130 235 -201 475
-320 204 -101 192 -100 320 -39 193 92 348 282 407 499 17 62 21 105 21 236 0
140 -3 172 -26 258 -39 145 -95 245 -197 348 -71 72 -100 93 -180 132 -144 70
-292 92 -450 66z"/>
<path d="M1931 2515 c-486 -129 -781 -399 -847 -776 -84 -481 291 -915 896
-1038 122 -25 280 -39 280 -24 0 5 -48 17 -107 25 -267 41 -469 141 -648 322
-281 285 -334 672 -137 1001 111 186 241 309 422 400 93 47 204 88 263 99 21
4 35 11 32 17 -8 12 -12 12 -154 -26z"/>
<path d="M2112 2502 c-30 -9 -77 -36 -105 -60 -29 -23 -87 -69 -130 -103 -131
-101 -248 -270 -290 -419 -58 -205 -48 -442 25 -619 107 -257 324 -432 647
-519 90 -24 110 -26 331 -26 215 -1 242 1 319 22 323 89 557 317 621 605 20
88 8 247 -24 332 -15 39 -31 85 -36 103 -10 41 -32 74 -89 136 -112 119 -268
200 -776 399 -104 41 -232 93 -283 116 -112 51 -141 56 -210 33z"/>
</g>
</svg>
